<?xml version="1.0" encoding="UTF-8"?>
<svg version="1.1" xmlns="http://www.w3.org/2000/svg" width="198" height="130">
<path d="M0 0 C1.64403809 -0.00894287 1.64403809 -0.00894287 3.32128906 -0.01806641 C8.19400324 -0.01453238 13.06542039 0.03254696 17.9375 0.109375 C19.7323291 5.99652235 19.18213544 12.32545813 19.1875 18.421875 C19.18817474 19.10299347 19.18884949 19.78411194 19.18954468 20.48587036 C19.17391084 30.38267637 18.79814194 39.56618084 15.9375 49.109375 C15.60878906 50.3159375 15.28007812 51.5225 14.94140625 52.765625 C10.13656043 68.85936463 1.88786837 81.4459505 -10.0625 93.109375 C-10.66578125 93.72167969 -11.2690625 94.33398438 -11.890625 94.96484375 C-25.88120179 108.14283654 -45.57504295 113.28466116 -64.25 113.296875 C-65.74563477 113.31524414 -65.74563477 113.31524414 -67.27148438 113.33398438 C-68.70524414 113.33688477 -68.70524414 113.33688477 -70.16796875 113.33984375 C-71.03574951 113.34395264 -71.90353027 113.34806152 -72.79760742 113.35229492 C-75.0625 113.109375 -75.0625 113.109375 -78.0625 111.109375 C-77.216875 110.39652344 -76.37125 109.68367188 -75.5 108.94921875 C-74.3541351 107.98180822 -73.20830358 107.01435816 -72.0625 106.046875 C-71.50949219 105.58087891 -70.95648438 105.11488281 -70.38671875 104.63476562 C-56.51899311 92.91892845 -43.04601357 80.64048328 -32.0625 66.109375 C-31.41571289 65.26125244 -31.41571289 65.26125244 -30.75585938 64.39599609 C-24.32233564 55.93118847 -18.45616753 47.27397341 -13.0625 38.109375 C-16.4151742 42.0057261 -19.74819751 45.91773635 -23.0637207 49.84570312 C-27.67923147 55.31245121 -32.30961432 60.76102528 -37.0625 66.109375 C-38.01962891 67.18832031 -38.01962891 67.18832031 -38.99609375 68.2890625 C-41.3370959 70.90926674 -43.69702821 73.51123386 -46.0625 76.109375 C-46.5560498 76.65480957 -47.04959961 77.20024414 -47.55810547 77.76220703 C-54.47074399 85.38198836 -61.58872626 92.72406175 -69.0625 99.796875 C-69.76826172 100.46799316 -70.47402344 101.13911133 -71.20117188 101.83056641 C-74.96202099 105.3467273 -78.67926708 108.40409843 -83.0625 111.109375 C-83.86490849 109.15541846 -84.65379309 107.19590732 -85.4375 105.234375 C-85.87835938 104.14382812 -86.31921875 103.05328125 -86.7734375 101.9296875 C-92.83792448 85.15878838 -91.8484404 65.30748164 -84.7421875 49.09765625 C-81.3502999 42.45289284 -76.96066409 36.71140913 -72.0625 31.109375 C-71.26585937 30.18705078 -71.26585937 30.18705078 -70.453125 29.24609375 C-56.62201916 14.35369018 -37.23963847 7.08453587 -18.0625 2.109375 C-17.03898437 1.83996094 -16.01546875 1.57054687 -14.9609375 1.29296875 C-10.00354947 0.24738396 -5.05489076 0.02743715 0 0 Z M-11.0625 33.109375 C-10.0625 35.109375 -10.0625 35.109375 -10.0625 35.109375 Z " fill="#3AB44A" transform="translate(174.0625,7.890625)"/>
<path d="M0 0 C21.92965028 -0.82927249 42.61561506 4.87253186 59.09375 20 C71.8363309 33.3692652 76.56059897 48.0858911 76.203125 66.19140625 C75.96232371 70.70643036 75.23941348 74.66205282 74 79 C73.34 79 72.68 79 72 79 C70.54252873 76.90148327 69.19853874 74.80593251 67.875 72.625 C57.65244478 56.27715564 43.97130657 39.98273798 28 29 C29.35931641 30.32451172 29.35931641 30.32451172 30.74609375 31.67578125 C37.9902421 38.78930559 44.71272603 46.01516206 51 54 C52.04942884 55.28602487 53.10171867 56.5697183 54.15625 57.8515625 C72 79.55648172 72 79.55648172 72 83 C57.19789568 87.48063698 43.01633907 87.45979163 28.88671875 80.45703125 C13.3018466 71.03712927 4.50502782 56.64004801 0.02734375 39.21484375 C-2.83028784 26.38339261 -3.51414991 12.77016976 0 0 Z " fill="#3AB44A" transform="translate(6,37)"/>
<path d="M0 0 C15.17347976 -0.57378705 27.92580307 2.08509664 42 8 C39 9 39 9 36.75 8.0625 C33.37981859 6.76038445 30.58214661 6.85952366 27 7 C27 6.34 27 5.68 27 5 C21.56319578 3.38909505 16.93081996 2.86085926 11.26953125 3 C8.74543483 3 6.45902151 2.53791096 4 2 C1.86064717 2.78375681 1.86064717 2.78375681 1.38330078 4.68481445 C0.91696527 7.50154037 0.87022083 10.18708716 0.8671875 13.04296875 C0.86589844 14.19861328 0.86460938 15.35425781 0.86328125 16.54492188 C0.86714844 17.74697266 0.87101563 18.94902344 0.875 20.1875 C0.87113281 21.40115234 0.86726562 22.61480469 0.86328125 23.86523438 C0.86457031 25.01701172 0.86585937 26.16878906 0.8671875 27.35546875 C0.86831543 28.41403076 0.86944336 29.47259277 0.87060547 30.56323242 C0.72491799 32.94779025 0.72491799 32.94779025 2 34 C2.5715675 36.57205373 3.02869802 39.15783913 3.5 41.75 C3.77949757 43.95845606 3.77949757 43.95845606 5 45 C5.04080783 46.99958364 5.04254356 49.00045254 5 51 C2.32107971 48.32107971 1.84362625 45.37843412 0.9375 41.8125 C0.76412109 41.16474609 0.59074219 40.51699219 0.41210938 39.84960938 C-1.43230971 32.77580283 -2.19408417 25.96217967 -2.1875 18.6875 C-2.18814453 17.94636963 -2.18878906 17.20523926 -2.18945312 16.44165039 C-2.13520627 10.78949846 -1.50419561 5.46613941 0 0 Z " fill="#4AA859" transform="translate(6,37)"/>
<path d="M0 0 C6.41121165 7.02180324 7.1961144 17.76737928 7.1875 26.8125 C7.18814453 27.51375 7.18878906 28.215 7.18945312 28.9375 C7.13547051 34.24742613 6.45403232 38.91088689 5 44 C4.34 44 3.68 44 3 44 C2.34 42.68 1.68 41.36 1 40 C1.99 39.505 1.99 39.505 3 39 C3.66 39.33 4.32 39.66 5 40 C5.02909763 36.75001888 5.04683161 33.50007143 5.0625 30.25 C5.07087891 29.32960938 5.07925781 28.40921875 5.08789062 27.4609375 C5.09111328 26.57148437 5.09433594 25.68203125 5.09765625 24.765625 C5.10551147 23.54020996 5.10551147 23.54020996 5.11352539 22.29003906 C5.00017695 20.00356943 4.82597477 18.13907044 4 16 C3.01 15.67 2.02 15.34 1 15 C1.03480469 14.06027344 1.03480469 14.06027344 1.0703125 13.1015625 C1.08835937 12.28429687 1.10640625 11.46703125 1.125 10.625 C1.14820312 9.81289062 1.17140625 9.00078125 1.1953125 8.1640625 C1.21370051 5.78657757 1.21370051 5.78657757 -1 4 C-0.625 1.875 -0.625 1.875 0 0 Z " fill="#44AE53" transform="translate(75,72)"/>
<path d="M0 0 C2.97 0.495 2.97 0.495 6 1 C6 1.99 6 2.98 6 4 C7.98 4.66 9.96 5.32 12 6 C12.33 7.65 12.66 9.3 13 11 C11.02 9.68 9.04 8.36 7 7 C7.99 8.32 8.98 9.64 10 11 C9.484375 10.855625 8.96875 10.71125 8.4375 10.5625 C5.31490429 9.84190099 2.17449308 9.42733561 -1 9 C-0.67 6.03 -0.34 3.06 0 0 Z " fill="#3FAA50" transform="translate(27,59)"/>
<path d="M0 0 C0 0.66 0 1.32 0 2 C-1.65 2.33 -3.3 2.66 -5 3 C-5.33 3.99 -5.66 4.98 -6 6 C-7.60357591 6.88708455 -9.20917821 7.77068252 -10.82421875 8.63671875 C-16.08878654 11.93534381 -21.43511287 16.35260599 -24.609375 21.72265625 C-26 24 -26 24 -29 25 C-29 25.99 -29 26.98 -29 28 C-29.99 28.33 -30.98 28.66 -32 29 C-30.57016437 24.55613585 -28.14635915 21.53496664 -25 18.1875 C-24.51305664 17.66414063 -24.02611328 17.14078125 -23.52441406 16.6015625 C-7.76924572 0 -7.76924572 0 0 0 Z " fill="#4FA65B" transform="translate(126,22)"/>
<path d="M0 0 C0.33 0.99 0.66 1.98 1 3 C0.38511719 3.53109375 -0.22976562 4.0621875 -0.86328125 4.609375 C-2.07564453 5.66898437 -2.07564453 5.66898437 -3.3125 6.75 C-4.11300781 7.44609375 -4.91351563 8.1421875 -5.73828125 8.859375 C-8.03284426 10.90435465 -8.03284426 10.90435465 -9.66796875 13.265625 C-10.10753906 13.83796875 -10.54710938 14.4103125 -11 15 C-11.66 15 -12.32 15 -13 15 C-13 15.66 -13 16.32 -13 17 C-14.5 18.625 -14.5 18.625 -16 20 C-16.99 19.67 -17.98 19.34 -19 19 C-12.73 12.73 -6.46 6.46 0 0 Z " fill="#4CA858" transform="translate(133,85)"/>
<path d="M0 0 C-2 3 -2 3 -4.375 3.75 C-6.92504 3.99286095 -8.59135071 3.8028831 -11 3 C-11 3.66 -11 4.32 -11 5 C-14.96 5 -18.92 5 -23 5 C-16.57067093 0.71378062 -7.65663132 -0.53418358 0 0 Z " fill="#49AE55" transform="translate(168,9)"/>
<path d="M0 0 C0.66 0.66 1.32 1.32 2 2 C0.12855305 2.82065069 -1.74734336 3.6311584 -3.625 4.4375 C-4.66914063 4.88996094 -5.71328125 5.34242187 -6.7890625 5.80859375 C-9.88685251 6.95801705 -12.73210054 7.57311223 -16 8 C-16 7.34 -16 6.68 -16 6 C-15.34 5.67 -14.68 5.34 -14 5 C-14.66 4.01 -15.32 3.02 -16 2 C-12 2 -12 2 -8.5625 2.6875 C-4.52759693 3.04143887 -3.16606716 2.39853573 0 0 Z " fill="#42AD52" transform="translate(145,111)"/>
<path d="M0 0 C0.33 0.66 0.66 1.32 1 2 C-1.31 5.3 -3.62 8.6 -6 12 C-6.66 10.68 -7.32 9.36 -8 8 C-6.71894145 4.23218072 -5.90051926 2.46073079 -2.3125 0.625 C-1.549375 0.41875 -0.78625 0.2125 0 0 Z " fill="#43AD51" transform="translate(178,81)"/>
<path d="M0 0 C1.32 0.33 2.64 0.66 4 1 C0.04 3.64 -3.92 6.28 -8 9 C-8.66 8.67 -9.32 8.34 -10 8 C-9.01 7.67 -8.02 7.34 -7 7 C-7.33 5.68 -7.66 4.36 -8 3 C-6.865625 2.690625 -5.73125 2.38125 -4.5625 2.0625 C-1.21224901 1.37075469 -1.21224901 1.37075469 0 0 Z " fill="#41AC4F" transform="translate(157,103)"/>
<path d="M0 0 C0.99 0.33 1.98 0.66 3 1 C4.1875 4.0625 4.1875 4.0625 5 7 C5.66 7 6.32 7 7 7 C8.69140625 8.6796875 8.69140625 8.6796875 10.5625 10.875 C11.18253906 11.59429687 11.80257813 12.31359375 12.44140625 13.0546875 C14 15 14 15 15 17 C8.34692071 14.02362243 3.6059626 8.20225568 0 2 C0 1.34 0 0.68 0 0 Z " fill="#4AA35A" transform="translate(15,96)"/>
<path d="M0 0 C4.99275057 1.27721526 7.57611908 3.17330957 11 7 C8.03 6.01 5.06 5.02 2 4 C1.67 4.99 1.34 5.98 1 7 C0.01 6.01 -0.98 5.02 -2 4 C-1.34 2.68 -0.68 1.36 0 0 Z " fill="#42AB53" transform="translate(49,47)"/>
<path d="M0 0 C5.80205656 5.64524422 5.80205656 5.64524422 8 9 C8 9.66 8 10.32 8 11 C5.125 11.1875 5.125 11.1875 2 11 C1.34 10.01 0.68 9.02 0 8 C0.99 8 1.98 8 3 8 C2.690625 7.236875 2.38125 6.47375 2.0625 5.6875 C1.32106407 3.81210323 0.63771783 1.91315348 0 0 Z " fill="#42AA52" transform="translate(67,61)"/>
<path d="M0 0 C3 1 3 1 4.0625 3 C4.371875 3.66 4.68125 4.32 5 5 C5.66 5.33 6.32 5.66 7 6 C7 6.66 7 7.32 7 8 C7.66 8 8.32 8 9 8 C9 8.66 9 9.32 9 10 C9.66 10 10.32 10 11 10 C10.67 10.99 10.34 11.98 10 13 C8.32438946 11.40517782 6.65974066 9.79883156 5 8.1875 C3.6078125 6.84751953 3.6078125 6.84751953 2.1875 5.48046875 C0 3 0 3 0 0 Z " fill="#42AC53" transform="translate(48,75)"/>
<path d="M0 0 C0.66 0 1.32 0 2 0 C2 0.66 2 1.32 2 2 C3.6396875 1.938125 3.6396875 1.938125 5.3125 1.875 C9 2 9 2 12 4 C10.22950311 4.05410687 8.45853151 4.09284119 6.6875 4.125 C5.20830078 4.15980469 5.20830078 4.15980469 3.69921875 4.1953125 C1 4 1 4 -2 2 C-1.34 1.34 -0.68 0.68 0 0 Z " fill="#4EA45A" transform="translate(98,117)"/>
<path d="M0 0 C0.99 0.66 1.98 1.32 3 2 C2.34 2 1.68 2 1 2 C0.87625 2.598125 0.7525 3.19625 0.625 3.8125 C0 6 0 6 -2 9 C-2.99 9 -3.98 9 -5 9 C-3.7508258 5.54074837 -2.32472205 2.85306797 0 0 Z " fill="#42AD51" transform="translate(155,56)"/>
<path d="M0 0 C0.66 0.33 1.32 0.66 2 1 C-0.97 4.96 -0.97 4.96 -4 9 C-4.99 8.67 -5.98 8.34 -7 8 C-5.08864614 4.46399535 -3.37357234 2.21027154 0 0 Z " fill="#43AD50" transform="translate(162,40)"/>
<path d="M0 0 C5.35048061 0.37328935 7.50912907 1.9957657 11 6 C6.48986609 5.46939601 3.61621781 3.69113883 0 1 C0 0.67 0 0.34 0 0 Z " fill="#46A657" transform="translate(30,113)"/>
<path d="M0 0 C2.64752004 2.57784846 4.94432065 4.91648098 7 8 C3.22454612 6.90931332 0.52956528 6.0916909 -2 3 C-1.34 3 -0.68 3 0 3 C0 2.01 0 1.02 0 0 Z " fill="#40AC4F" transform="translate(60,96)"/>
<path d="M0 0 C2.32240046 2.85021875 3.93906527 5.46355091 5 9 C4.625 11.3125 4.625 11.3125 4 13 C3.54625 11.88625 3.0925 10.7725 2.625 9.625 C1.27534014 6.03800992 1.27534014 6.03800992 -1 4 C-0.625 1.875 -0.625 1.875 0 0 Z " fill="#4CA55A" transform="translate(75,72)"/>
<path d="M0 0 C3.57104439 1.87949705 5.54744301 3.17053157 7 7 C5.35 7 3.7 7 2 7 C2.33 5.68 2.66 4.36 3 3 C2.01 2.67 1.02 2.34 0 2 C0 1.34 0 0.68 0 0 Z " fill="#47A756" transform="translate(60,54)"/>
<path d="M0 0 C0.66 0.33 1.32 0.66 2 1 C0.625 2.5 0.625 2.5 -1 4 C-1.66 4 -2.32 4 -3 4 C-3 4.99 -3 5.98 -3 7 C-3.99 7.33 -4.98 7.66 -6 8 C-4.73058503 4.08597051 -3.48832306 2.20927127 0 0 Z " fill="#45AB56" transform="translate(100,43)"/>
<path d="M0 0 C0 0.66 0 1.32 0 2 C-5.45769231 5.10096154 -5.45769231 5.10096154 -8.203125 4.58984375 C-8.79609375 4.39519531 -9.3890625 4.20054688 -10 4 C-8.71086513 3.32845067 -7.41859796 2.66291141 -6.125 2 C-5.40570313 1.62875 -4.68640625 1.2575 -3.9453125 0.875 C-2 0 -2 0 0 0 Z " fill="#4CAA58" transform="translate(136,17)"/>
<path d="M0 0 C1.0625 1.8125 1.0625 1.8125 2 4 C1.67 4.99 1.34 5.98 1 7 C-0.32 6.01 -1.64 5.02 -3 4 C-2.01 2.68 -1.02 1.36 0 0 Z " fill="#44AF51" transform="translate(149,65)"/>
</svg>
